<svg width="717" height="720" viewBox="0 0 717 720" fill="none" xmlns="http://www.w3.org/2000/svg">
<path fill-rule="evenodd" clip-rule="evenodd" d="M152.884 63.267C156.243 69.7883 198.373 133.752 198.654 135.062C197.426 135.718 196.091 136.788 195.13 137.778L190.55 140.134L183.541 145.753C182.62 146.93 181.472 147.96 180.284 148.803C179.096 149.646 178.095 150.449 177.174 151.626C167.737 160.508 158.607 169.912 150.2 179.944C145.369 185.682 146.448 182.513 134.122 173.417C132.491 172.202 131.047 170.946 129.749 169.463C119.561 160.3 96.2977 142.202 88.0075 134.587C85.4532 131.809 82.3781 129.337 78.9031 127.736L30.4907 203.737C29.357 205.743 29.3687 203.979 29.492 207.28C32.7398 208.735 35.9876 210.19 39.0887 211.873L93.887 236.5L96.4933 237.701C115.741 248.049 112.86 238.292 102.813 267.08C102.053 269.005 100.494 272.669 99.921 274.554L95.3392 289.636C93.9028 296.602 92.6936 303.714 91.1365 310.119C75.4921 310.156 59.7789 308.054 44.5982 303.88C30.1538 301.309 15.6432 299.341 0.959775 298.388C2.0838 329.08 -1.55025 357.663 0.937305 389.236C17.4362 388.623 68.9353 385.181 86.6224 383.725C88.2326 391.21 89.3556 406.435 92.0123 418.786C92.9667 425.041 94.3353 431.403 96.0377 437.498L100.34 452.039L100.581 453.162L101.329 453.001C101.329 453.001 27.5403 479.251 18.259 483.401L27.1464 501.067C37.5751 524.08 50.3141 546.008 65.2828 566.478C69.3968 565.593 112.839 531.971 120.342 526.833C122.532 525.187 133.039 517.641 134.495 517.132L145.143 532.07C149.998 538.269 162.931 552.912 168.641 558.536L171.796 561.381L181.424 570.666C180.357 572.07 179.289 573.474 178.181 574.691L139.614 620.97C137.252 623.632 134.89 626.293 132.755 629.102C130.206 631.804 127.884 634.653 125.602 637.689C129.773 640.707 135.975 644.072 140.106 646.903C144.237 649.734 202.187 687.193 205.607 687.632C208.379 679.596 227.155 642.274 229.273 635.749C232.792 627.552 236.953 619.609 241.382 612C244.374 611.356 243.065 611.637 245.564 613.253L249.454 614.962C265.773 622.611 282.933 628.709 300.438 632.774C303.444 633.106 306.344 633.853 309.138 635.014C308.636 641.779 307.574 648.664 305.87 655.296L298.586 696.019C297.07 702.61 296.194 709.455 295.88 716.179L342.468 718.1C348.814 718.497 384.113 720.693 389.536 719.526C388.541 713.084 387.961 706.748 387.941 700.291C386.951 683.863 382.797 656.368 382.756 640.714C388.553 639.467 394.471 638.781 400.469 638.47C406.079 637.263 412.865 636.978 419.411 635.57L438.111 631.547C444.161 629.658 450.519 628.291 456.811 627.524C458.139 633.699 460.71 640.195 462.893 645.794L483.01 700.202L500.583 690.939L519.385 681.021C524.299 678.398 554.45 662.123 556.775 662.014L565.774 656.554L562.55 651.57C559.995 648.791 551.246 635.403 547.38 630.165L536.45 613.917C534.577 611.579 532.705 609.24 531.166 606.635C527.608 601.918 524.237 597.162 521.199 592.137L539.357 579.225C541.172 577.66 541.279 577.246 542.907 575.721C551.251 569.031 559.1 561.861 566.414 554.022L576.357 543.856C581.397 547.275 586.143 551.149 590.556 555.29L619.155 579.092C636.029 593.866 633.049 592.745 636.637 586.687L658.675 551.796C661.25 548.305 682.741 514.51 683.567 511.983C684.393 509.456 678.461 509.166 675.775 507.59L634.074 488.368C628.3 486.086 622.82 483.349 617.593 479.971C618.98 477.323 620.18 474.715 621.34 471.921C629.046 454.992 634.828 437.302 638.579 419.267C639.244 415.991 639.828 412.341 640.533 409.253L694.128 418.281C700.115 419.734 706.395 420.732 712.514 420.982C712.911 417.373 713.082 413.616 713.065 409.9C713.301 405.542 713.097 401.866 713.455 398.069C714.316 390.248 713.787 382.335 714.461 374.555C715.136 366.774 714.86 358.219 715.388 350.666C716.249 342.845 716.469 334.77 715.753 326.897C707.712 328.627 647.09 334.228 644.19 333.481C642.488 327.387 641.493 320.944 641.1 314.568C639.151 301.87 636.494 289.52 633.049 277.143C631.801 271.342 628.442 264.821 627.436 260.143L657.739 249.121L696.135 234.792C695.21 230.488 683.661 210.458 683.394 210.124C676.002 192.135 662.127 169.473 652.826 151.699C641.487 156.292 595.007 197.616 589.912 193.034C587.933 191.111 585.966 187.422 584.709 186.127C584.093 185.084 583.331 184.269 582.382 183.495C574.69 173.206 540.819 140.357 540.471 139.649C540.123 138.941 541.593 139.408 543.354 136.679C547.437 131.102 558.955 118.248 563.078 112.858L585.564 85.5061C586.269 82.4177 586.686 85.2647 587.311 81.802C587.935 78.3393 586.002 82.0836 584.155 78.9568C582.308 75.8299 511.247 31.9901 509.19 32.4326C507.616 35.1206 506.269 37.9555 505.15 40.9373L478.618 99.506L477.884 100.643L476.563 102.689L460.111 96.2431C442.391 90.266 424.391 85.7195 405.965 82.8308C408.692 56.4008 413.037 30.2102 418.811 4.29951C387.96 0.951185 356.95 -0.405231 326.05 0.564298C326.783 27.6204 330.255 54.6746 332.751 81.7429C320.97 84.2772 308.013 85.8899 295.351 89.7883C288.806 91.1963 284.505 92.1215 278.389 94.612C272.272 97.1024 266.904 99.432 262.456 100.585C257.273 87.4073 253.147 74.5902 248.151 61.3727L233.498 21.4526C226.447 24.1442 219.703 27.3569 213.307 31.2779L152.884 63.267Z" fill="#F2783B" fill-opacity="0.1"/>
</svg>
