<svg width="37" height="38" viewBox="0 0 37 38" fill="none" xmlns="http://www.w3.org/2000/svg">
<path d="M25.0909 26.5H12L9.5 30.5L18.5 34L28.5 30L25.0909 26.5Z" fill="#BABABA"/>
<circle cx="18.5" cy="15" r="5.5" fill="#BABABA"/>
<path d="M18.5 33.7999C26.6738 33.7999 33.3 27.1738 33.3 18.9999C33.3 10.8261 26.6738 4.19995 18.5 4.19995C10.3262 4.19995 3.70001 10.8261 3.70001 18.9999C3.70001 27.1738 10.3262 33.7999 18.5 33.7999ZM18.5 33.7999C23.3 33.7999 27.2833 31.0983 28.675 29.7475C27.9596 28.6768 25.0731 25.6394 23.659 25.6394H13.3416C12.3658 25.6394 9 30.349 9 30.349C9 30.349 13.3416 33.7999 18.5 33.7999ZM23.8016 14.9556C23.8016 12.132 21.4179 9.82495 18.5005 9.82495C15.583 9.82495 13.1994 12.132 13.1994 14.9556C13.1994 17.7791 15.583 20.0862 18.5005 20.0862C21.4179 20.0862 23.8016 17.7791 23.8016 14.9556Z" stroke="black"/>
</svg>
