<svg width="15" height="16" viewBox="0 0 15 16" fill="none" xmlns="http://www.w3.org/2000/svg">
<path d="M8.20264 13.1306C9.58709 13.8274 11.2097 14.3357 13.1047 14.5678C13.6781 14.638 14.1667 14.1776 14.1667 13.6V12.114C14.1667 11.6552 13.8544 11.2552 13.4092 11.1439L11.3826 10.6372C11.0419 10.552 10.6814 10.6519 10.433 10.9003L8.20264 13.1306ZM8.20264 13.1306C5.60625 11.8239 3.84755 9.85408 2.70098 7.79895M2.70098 7.79895C1.64692 5.90962 1.11019 3.94819 0.915555 2.36353C0.846635 1.8024 1.30189 1.33325 1.86723 1.33325H3.34687C3.82355 1.33325 4.23397 1.66971 4.32745 2.13714L4.89505 4.97513C4.96062 5.30299 4.858 5.64193 4.62158 5.87835L2.70098 7.79895Z" stroke="white" stroke-width="1.5"/>
</svg>
