<svg width="45" height="44" viewBox="0 0 45 44" fill="none" xmlns="http://www.w3.org/2000/svg">
<path d="M22.5944 0C10.244 0 0.193064 9.7812 0.18871 21.802C0.185806 25.6461 1.21935 29.3979 3.17903 32.7023L0 44L11.8785 40.9684C15.1827 42.7147 18.8567 43.6256 22.5856 43.6231H22.5944C34.9447 43.6231 44.9956 33.8404 45 21.8196C45.0029 15.9969 42.6745 10.516 38.4431 6.39613C34.2131 2.2748 28.5881 0.00146667 22.5944 0ZM22.5944 39.9403H22.5871C19.2455 39.9403 15.9677 39.0661 13.1081 37.4147L12.4258 37.0216L5.37968 38.8197L7.26097 32.1317L6.81823 31.4468C4.95857 28.5811 3.96861 25.2287 3.97016 21.802C3.97452 11.8096 12.33 3.6828 22.6016 3.6828C27.5748 3.68427 32.2505 5.57187 35.7677 8.99653C39.285 12.4212 41.22 16.9752 41.2171 21.8181C41.2127 31.8105 32.8587 39.9403 22.5929 39.9403H22.5944ZM32.8094 26.3663C32.249 26.0949 29.4968 24.7764 28.9829 24.5931C28.4705 24.4127 28.0974 24.3188 27.7244 24.8644C27.3527 25.41 26.2785 26.6376 25.9534 26.9999C25.6253 27.3636 25.2987 27.4076 24.7384 27.1363C24.1781 26.8635 22.3737 26.2885 20.2369 24.4317C18.5719 22.9885 17.4484 21.2051 17.1218 20.658C16.7952 20.1139 17.0869 19.8191 17.3671 19.5477C17.6182 19.3057 17.9274 18.9127 18.2061 18.5944C18.4848 18.2761 18.5777 18.0488 18.7665 17.6851C18.9523 17.3228 18.8594 17.0031 18.7185 16.7317C18.5777 16.4575 17.46 13.7764 16.9911 12.6867C16.5382 11.6248 16.0766 11.7671 15.7326 11.7495C15.406 11.7348 15.0344 11.7304 14.6584 11.7304C14.2882 11.7304 13.68 11.8668 13.1661 12.4124C12.6537 12.958 11.2065 14.2751 11.2065 16.9561C11.2065 19.6387 13.2126 22.2288 13.4927 22.5925C13.7729 22.9548 17.4411 28.4592 23.0574 30.8205C24.3929 31.3793 25.4352 31.7152 26.2495 31.9675C27.5908 32.3825 28.8116 32.3224 29.7755 32.1831C30.8497 32.0261 33.0881 30.866 33.5526 29.5944C34.02 28.3228 34.02 27.2316 33.8806 27.0043C33.7442 26.7769 33.3697 26.6405 32.8094 26.3663Z" fill="white"/>
</svg>
