<svg width="24" height="24" viewBox="0 0 24 24" fill="none" xmlns="http://www.w3.org/2000/svg">
<rect x="1.5" y="1.5" width="21" height="21" rx="6" fill="white"/>
<rect x="1.5" y="1.5" width="21" height="21" rx="6" fill="white"/>
<rect x="1.5" y="1.5" width="21" height="21" rx="6" fill="white"/>
<path d="M16.75 7.375C16.75 7.99632 16.2463 8.5 15.625 8.5C15.0037 8.5 14.5 7.99632 14.5 7.375C14.5 6.75368 15.0037 6.25 15.625 6.25C16.2463 6.25 16.75 6.75368 16.75 7.375Z" fill="#27AAE1"/>
<path fill-rule="evenodd" clip-rule="evenodd" d="M11.5 15.25C13.5711 15.25 15.25 13.5711 15.25 11.5C15.25 9.42893 13.5711 7.75 11.5 7.75C9.42893 7.75 7.75 9.42893 7.75 11.5C7.75 13.5711 9.42893 15.25 11.5 15.25ZM11.5 13.75C12.7426 13.75 13.75 12.7426 13.75 11.5C13.75 10.2574 12.7426 9.25 11.5 9.25C10.2574 9.25 9.25 10.2574 9.25 11.5C9.25 12.7426 10.2574 13.75 11.5 13.75Z" fill="#27AAE1"/>
<path fill-rule="evenodd" clip-rule="evenodd" d="M4 11.2C4 8.67976 4 7.41965 4.49047 6.45704C4.9219 5.61031 5.61031 4.9219 6.45704 4.49047C7.41965 4 8.67976 4 11.2 4H11.8C14.3202 4 15.5804 4 16.543 4.49047C17.3897 4.9219 18.0781 5.61031 18.5095 6.45704C19 7.41965 19 8.67976 19 11.2V11.8C19 14.3202 19 15.5804 18.5095 16.543C18.0781 17.3897 17.3897 18.0781 16.543 18.5095C15.5804 19 14.3202 19 11.8 19H11.2C8.67976 19 7.41965 19 6.45704 18.5095C5.61031 18.0781 4.9219 17.3897 4.49047 16.543C4 15.5804 4 14.3202 4 11.8V11.2ZM11.2 5.5H11.8C13.0849 5.5 13.9583 5.50117 14.6334 5.55633C15.2911 5.61006 15.6274 5.70745 15.862 5.82698C16.4265 6.1146 16.8854 6.57354 17.173 7.13803C17.2926 7.37263 17.3899 7.70893 17.4437 8.36656C17.4988 9.04169 17.5 9.91513 17.5 11.2V11.8C17.5 13.0849 17.4988 13.9583 17.4437 14.6334C17.3899 15.2911 17.2926 15.6274 17.173 15.862C16.8854 16.4265 16.4265 16.8854 15.862 17.173C15.6274 17.2926 15.2911 17.3899 14.6334 17.4437C13.9583 17.4988 13.0849 17.5 11.8 17.5H11.2C9.91513 17.5 9.04169 17.4988 8.36656 17.4437C7.70893 17.3899 7.37263 17.2926 7.13803 17.173C6.57354 16.8854 6.1146 16.4265 5.82698 15.862C5.70745 15.6274 5.61006 15.2911 5.55633 14.6334C5.50117 13.9583 5.5 13.0849 5.5 11.8V11.2C5.5 9.91513 5.50117 9.04169 5.55633 8.36656C5.61006 7.70893 5.70745 7.37263 5.82698 7.13803C6.1146 6.57354 6.57354 6.1146 7.13803 5.82698C7.37263 5.70745 7.70893 5.61006 8.36656 5.55633C9.04169 5.50117 9.91513 5.5 11.2 5.5Z" fill="#27AAE1"/>
</svg>
